#!OML:ASF E:\inclinewalkrobotboard\Project 1\Capture day 1\Session 1\subject1.ASF
:FULLY-SPECIFIED
:DEGREES
17
root 6.97579 16.5652 35.7538 -172.762 1.54037 179.775
lowerback -8.11042 0.998719 -6.75941
upperback 1.21743 1.95027 1.27369
thorax 5.57399 0.725619 5.39671
lowerneck -10.9655 0.0722277 -3.44045
upperneck 31.6759 -4.10574 6.10863
head 12.4692 -2.5334 2.13959
rclavicle 7.37367e-015 -3.47873e-015
rhumerus -39.8922 -28.0017 -74.0213
rradius 26.3871
rwrist 14.5824
rhand -15.9984 -34.6585
rfingers 7.12502
rthumb 10.2017 -64.3911
lclavicle 7.37367e-015 -3.47873e-015
lhumerus -29.5418 9.82248 85.2369
lradius 16.7036
lwrist -31.1419
lhand -24.8805 -22.1497
lfingers 7.12502
lthumb 1.627 7.82383
rfemur -4.47963 1.22932 20.4082
rtibia 9.35531
rfoot -13.2228 -4.19947
rtoes -31.1405
lfemur -8.41028 -10.5401 -19.8094
ltibia 17.6243
lfoot -21.3081 3.32
ltoes -61.5248
18
root 6.9746 16.566 35.7617 -172.757 1.6276 179.916
lowerback -8.17109 1.06798 -6.59553
upperback 1.24451 2.03136 1.26514
thorax 5.63063 0.767932 5.30712
lowerneck -10.9845 0.0652831 -3.35857
upperneck 32.3198 -4.38066 6.16424
head 12.7598 -2.6881 2.10552
rclavicle 1.66234e-014 1.33683e-014
rhumerus -39.9262 -28.2643 -73.9575
rradius 26.3579
rwrist 14.617
rhand -15.9756 -34.4648
rfingers 7.12502
rthumb 10.2237 -64.1964
lclavicle 1.66234e-014 1.33683e-014
lhumerus -29.3042 8.75958 85.7704
lradius 17.2292
lwrist -30.1513
lhand -24.899 -22.2325
lfingers 7.12502
lthumb 1.6091 7.7412
rfemur -4.53876 1.39134 20.5849
rtibia 9.38211
rfoot -13.2027 -4.25379
rtoes -31.0745
lfemur -8.39954 -10.431 -19.6199
ltibia 17.5273
lfoot -21.2735 3.33819
ltoes -61.5677
19
root 6.97091 16.5669 35.7712 -172.706 1.70894 179.962
lowerback -8.23722 1.10327 -6.5262
upperback 1.23221 2.0766 1.25051
thorax 5.65144 0.792325 5.25988
lowerneck -10.8924 0.148918 -3.38087
upperneck 32.9427 -4.53483 6.29219
head 13.0178 -2.79898 2.13484
rclavicle 1.11164e-014 -1.97791e-014
rhumerus -39.9542 -28.3641 -73.8651
rradius 26.3705
rwrist 14.698
rhand -17.1245 -35.201
rfingers 7.12502
rthumb 9.11523 -64.984
lclavicle 1.11164e-014 -1.97791e-014
lhumerus -29.162 7.85722 86.2381
lradius 17.7839
lwrist -29.3161
lhand -24.9231 -22.4558
lfingers 7.12502
lthumb 1.58581 7.51806
rfemur -4.66873 1.45737 20.6262
rtibia 9.432
rfoot -13.2652 -4.23658
rtoes -31.0973
lfemur -8.49469 -10.4604 -19.5773
ltibia 17.5617
lfoot -21.2855 3.31406
ltoes -61.4086
20
root 6.96458 16.5686 35.7794 -172.735 1.75412 179.937
lowerback -8.20068 1.09539 -6.52998
upperback 1.24496 2.06353 1.26107
thorax 5.6455 0.785408 5.27058
lowerneck -10.6733 0.222213 -3.46278
upperneck 33.3158 -4.64269 6.44957
head 13.1433 -2.88456 2.19379
rclavicle -1.76949e-014 -5.96354e-015
rhumerus -39.9774 -28.2769 -73.7836
rradius 26.3592
rwrist 14.7968
rhand -17.685 -35.9267
rfingers 7.12502
rthumb 8.57436 -65.7326
lclavicle -1.76949e-014 -5.96354e-015
lhumerus -28.9978 7.21368 86.6703
lradius 18.265
lwrist -28.7048
lhand -24.9661 -22.3982
lfingers 7.12502
lthumb 1.54427 7.57591
rfemur -4.67069 1.37612 20.5626
rtibia 9.40811
rfoot -13.2391 -4.10224
rtoes -31.027
lfemur -8.54019 -10.5518 -19.6658
ltibia 17.7025
lfoot -21.349 3.30288
ltoes -61.1851
21
root 6.96036 16.5697 35.7857 -172.794 1.80136 180.002
lowerback -8.14932 1.11316 -6.47626
upperback 1.29019 2.07629 1.3098
thorax 5.66233 0.790582 5.29248
lowerneck -10.559 0.22401 -3.40855
upperneck 33.6413 -4.79568 6.42735
head 13.2685 -2.98291 2.15158
rclavicle -1.20575e-014 6.36111e-015
rhumerus -39.9686 -28.4274 -73.5891
rradius 26.237
rwrist 15.1435
rhand -17.4986 -36.1194
rfingers 7.12502
rthumb 8.7542 -65.9179
lclavicle -1.20575e-014 6.36111e-015
lhumerus -28.7654 6.507 87.1256
lradius 18.6324
lwrist -28.1316
lhand -25.0916 -22.3294
lfingers 7.12502
lthumb 1.42314 7.64558
rfemur -4.61264 1.39774 20.6275
rtibia 9.34608
rfoot -13.1368 -4.12208
rtoes -31.2418
lfemur -8.50789 -10.5673 -19.6273
ltibia 17.7503
lfoot -21.3597 3.43845
ltoes -61.2311
